<svg width="18" height="18" viewBox="0 0 18 18" fill="none" xmlns="http://www.w3.org/2000/svg">
<path d="M8.03268 3.26099C8.33204 2.33968 9.63545 2.33968 9.9348 3.26099L10.7799 5.8618C10.9137 6.27382 11.2977 6.55279 11.7309 6.55279H14.4656C15.4343 6.55279 15.8371 7.7924 15.0534 8.3618L12.841 9.96919C12.4905 10.2238 12.3438 10.6752 12.4777 11.0872L13.3228 13.688C13.6221 14.6094 12.5676 15.3755 11.7839 14.8061L9.57153 13.1987C9.22104 12.944 8.74644 12.944 8.39596 13.1987L6.18357 14.8061C5.39986 15.3755 4.34538 14.6094 4.64473 13.688L5.48978 11.0872C5.62366 10.6752 5.477 10.2238 5.12651 9.96919L2.91413 8.3618C2.13042 7.7924 2.53319 6.55279 3.50192 6.55279H6.23657C6.6698 6.55279 7.05375 6.27383 7.18763 5.8618L8.03268 3.26099Z" fill="#FF0000"/>
</svg>
